<svg width="400" height="415" viewBox="0 0 400 415" fill="none" xmlns="http://www.w3.org/2000/svg">
<g clip-path="url(#clip0_0_1461)">
<g filter="url(#filter0_d_0_1461)">
<rect width="400" height="415" rx="8" fill="white"/>
</g>
<ellipse cx="102.189" cy="166.815" rx="53.1891" ry="54.8152" fill="#B1B4C5"/>
<ellipse cx="102.189" cy="164.385" rx="53.1891" ry="52.385" fill="url(#paint0_linear_0_1461)"/>
<ellipse cx="102.189" cy="165.465" rx="40.8321" ry="41.0439" fill="#E1E4ED"/>
<path d="M118.054 154.838C117.753 154.722 117.44 154.672 117.151 154.692C116.733 154.722 116.395 154.893 116.195 155.173C115.018 156.839 114.054 159.984 113.276 162.51C112.919 163.679 112.44 165.243 112.093 165.985C111.731 163.906 112.14 156.288 112.299 153.355L112.301 153.308C112.411 151.27 112.426 150.912 112.402 150.755C112.227 149.637 111.783 148.903 111.082 148.575C110.374 148.242 109.453 148.389 108.462 148.992C107.965 149.295 107.827 150.337 107.401 155.059L107.399 155.08C107.164 157.674 106.623 163.647 105.958 164.642C105.207 163.25 104.174 155.343 103.728 151.92C103.416 149.523 103.234 148.146 103.112 147.731C102.855 146.86 101.769 146.119 100.694 146.078C99.7995 146.033 99.0653 146.492 98.7149 147.291C98.0593 148.027 98.2909 150.47 99.0155 156.255C99.3605 159.009 100.072 164.696 99.6244 165.334C98.731 165.236 97.1972 161.674 95.0652 154.743C94.467 152.802 94.2818 152.218 94.0981 151.962C93.736 151.072 92.5051 150.385 91.4016 150.463C91.3073 150.47 91.2157 150.482 91.1252 150.499C90.5475 150.615 89.2293 151.152 89.5103 153.63C90.2887 157.064 91.1342 159.586 91.9548 162.034L91.9714 162.083C92.4623 163.549 92.9265 164.935 93.3577 166.472C94.3743 170.102 93.979 172.354 93.9742 172.379C93.9404 172.611 93.8695 172.753 93.7629 172.802C93.7245 172.82 93.6753 172.831 93.6199 172.835C93.2978 172.858 92.8146 172.642 92.5655 172.502C91.9967 171.404 89.1645 166.173 86.5981 165.447L86.5059 165.42L86.4126 165.428C85.4714 165.518 84.7793 165.877 84.3563 166.496C83.686 167.474 83.9635 168.72 84.0308 168.97L84.0686 169.059C84.0896 169.097 86.1476 172.885 86.4662 174.647C86.7408 176.158 88.1619 177.795 89.3044 179.111L89.3514 179.165C89.7241 179.595 90.0458 179.967 90.2995 180.311C93.6146 183.803 98.8574 186.739 98.9001 186.763C99.5542 187.25 99.918 187.721 99.9564 188.126C99.9807 188.392 99.8442 188.55 99.8395 188.556L99.7253 188.676L100.45 189.387L114.282 188.406L114.871 185.678C116.695 177.972 116.314 171.402 116.308 171.358C116.315 171.117 116.826 168.779 117.237 166.89L117.249 166.842C118.068 163.079 119.087 158.398 119.283 156.617C119.368 155.856 118.885 155.156 118.054 154.838Z" fill="#8A90AC"/>
<ellipse cx="298.686" cy="166.815" rx="53.6862" ry="54.8152" fill="#B1B4C5"/>
<ellipse cx="298.686" cy="164.385" rx="53.6862" ry="52.385" fill="url(#paint1_linear_0_1461)"/>
<ellipse cx="298.686" cy="165.465" rx="41.2137" ry="41.0439" fill="#E1E4ED"/>
<path d="M287.927 165.114L292.379 158.88C290.529 158.573 287.131 158.505 284.347 161.277C279.96 165.646 278.183 175.085 277.812 177.37L288.963 188.475C290.971 188.304 299.858 187.122 308.422 178.593C308.513 178.409 310.599 176.874 308.894 175.175C308.08 174.365 306.732 174.38 305.9 175.208C305.477 175.63 304.818 175.636 304.404 175.223C303.989 174.81 303.995 174.154 304.419 173.733L307.445 170.719C308.983 169.187 307.533 166.604 305.387 167.224L302.909 169.337C302.457 169.729 301.784 169.661 301.412 169.233C301.028 168.79 301.11 168.119 301.548 167.742C310.202 160.18 308.939 161.091 314.506 155.893C316.586 154.169 313.969 151.117 311.92 152.864L298.451 164.927C298.059 165.259 297.458 165.265 297.073 164.911C296.628 164.529 296.617 163.977 296.908 163.542L306.303 148.996C307.676 147.144 304.974 145.087 303.527 146.954L289.636 166.302C289.301 166.784 288.626 166.895 288.166 166.558C287.705 166.249 287.578 165.58 287.927 165.114Z" fill="#8A90AC"/>
<ellipse cx="200.686" cy="326.815" rx="53.6862" ry="54.8152" fill="#B1B4C5"/>
<ellipse cx="200.686" cy="324.385" rx="53.6862" ry="52.385" fill="url(#paint2_linear_0_1461)"/>
<ellipse cx="200.686" cy="325.465" rx="41.2137" ry="41.0439" fill="#E1E4ED"/>
<path d="M216.652 319.57C216.176 313.574 209.444 314.186 209.444 314.186C206.602 309.175 202.162 312.805 202.162 312.805C198.752 307.894 194.476 312.445 194.476 312.445C187.103 311.649 187.389 317.679 187.389 317.679C187.215 319.596 188.428 325.526 188.428 325.526C187.334 322.108 184.962 324.945 184.962 324.945C182.045 329.447 184.241 331.912 184.241 331.912C188.187 336.539 196.598 342.092 196.598 342.092C199.643 343.837 198.355 345.393 198.355 345.393L216.775 342.348L217.199 338.854C219.999 330.382 216.652 319.57 216.652 319.57Z" fill="#8A90AC"/>
<path d="M189.617 139.478C189.617 140.301 189.348 140.93 188.811 141.363C188.282 141.788 187.598 142 186.757 142H183.845C183.802 142 183.763 141.987 183.728 141.961C183.702 141.926 183.689 141.887 183.689 141.844V133.056C183.689 133.013 183.702 132.978 183.728 132.952C183.763 132.917 183.802 132.9 183.845 132.9H186.562C187.489 132.9 188.209 133.108 188.72 133.524C189.231 133.931 189.487 134.555 189.487 135.396C189.487 136.254 189.153 136.874 188.486 137.255C188.443 137.281 188.438 137.307 188.473 137.333C189.236 137.766 189.617 138.481 189.617 139.478ZM185.587 134.473C185.544 134.473 185.522 134.495 185.522 134.538V136.579C185.522 136.622 185.544 136.644 185.587 136.644H186.575C186.922 136.644 187.195 136.549 187.394 136.358C187.593 136.167 187.693 135.903 187.693 135.565C187.693 135.218 187.593 134.95 187.394 134.759C187.203 134.568 186.93 134.473 186.575 134.473H185.587ZM186.679 140.414C187.026 140.414 187.294 140.314 187.485 140.115C187.684 139.907 187.784 139.617 187.784 139.244C187.784 138.871 187.684 138.581 187.485 138.373C187.294 138.156 187.026 138.048 186.679 138.048H185.587C185.544 138.048 185.522 138.07 185.522 138.113V140.349C185.522 140.392 185.544 140.414 185.587 140.414H186.679ZM196.298 134.317C196.298 134.36 196.281 134.399 196.246 134.434C196.22 134.46 196.186 134.473 196.142 134.473H192.658C192.615 134.473 192.593 134.495 192.593 134.538V136.566C192.593 136.609 192.615 136.631 192.658 136.631H194.829C194.873 136.631 194.907 136.648 194.933 136.683C194.968 136.709 194.985 136.744 194.985 136.787V138.048C194.985 138.091 194.968 138.13 194.933 138.165C194.907 138.191 194.873 138.204 194.829 138.204H192.658C192.615 138.204 192.593 138.226 192.593 138.269V140.362C192.593 140.405 192.615 140.427 192.658 140.427H196.142C196.186 140.427 196.22 140.444 196.246 140.479C196.281 140.505 196.298 140.54 196.298 140.583V141.844C196.298 141.887 196.281 141.926 196.246 141.961C196.22 141.987 196.186 142 196.142 142H190.916C190.873 142 190.834 141.987 190.799 141.961C190.773 141.926 190.76 141.887 190.76 141.844V133.056C190.76 133.013 190.773 132.978 190.799 132.952C190.834 132.917 190.873 132.9 190.916 132.9H196.142C196.186 132.9 196.22 132.917 196.246 132.952C196.281 132.978 196.298 133.013 196.298 133.056V134.317ZM202.312 142C202.216 142 202.156 141.957 202.13 141.87L201.831 140.596C201.822 140.561 201.8 140.544 201.766 140.544H199.335C199.3 140.544 199.278 140.561 199.27 140.596L198.971 141.87C198.945 141.957 198.888 142 198.802 142H197.229C197.116 142 197.073 141.944 197.099 141.831L199.439 133.03C199.465 132.943 199.525 132.9 199.621 132.9H201.506C201.601 132.9 201.662 132.943 201.688 133.03L204.028 141.831L204.041 141.883C204.041 141.961 203.993 142 203.898 142H202.312ZM199.621 139.049C199.612 139.075 199.616 139.097 199.634 139.114C199.651 139.123 199.668 139.127 199.686 139.127H201.402C201.419 139.127 201.436 139.123 201.454 139.114C201.471 139.097 201.475 139.075 201.467 139.049L200.57 135.279C200.561 135.244 200.548 135.227 200.531 135.227C200.513 135.227 200.5 135.244 200.492 135.279L199.621 139.049ZM209.707 132.9C209.751 132.9 209.785 132.917 209.811 132.952C209.846 132.978 209.863 133.013 209.863 133.056V134.33C209.863 134.373 209.846 134.412 209.811 134.447C209.785 134.473 209.751 134.486 209.707 134.486H207.731C207.688 134.486 207.666 134.508 207.666 134.551V141.844C207.666 141.887 207.649 141.926 207.614 141.961C207.588 141.987 207.554 142 207.51 142H205.989C205.946 142 205.907 141.987 205.872 141.961C205.846 141.926 205.833 141.887 205.833 141.844V134.551C205.833 134.508 205.812 134.486 205.768 134.486H203.857C203.814 134.486 203.775 134.473 203.74 134.447C203.714 134.412 203.701 134.373 203.701 134.33V133.056C203.701 133.013 203.714 132.978 203.74 132.952C203.775 132.917 203.814 132.9 203.857 132.9H209.707ZM213.587 142.104C212.989 142.104 212.465 142 212.014 141.792C211.563 141.575 211.212 141.276 210.961 140.895C210.718 140.505 210.597 140.059 210.597 139.556V139.218C210.597 139.175 210.61 139.14 210.636 139.114C210.671 139.079 210.71 139.062 210.753 139.062H212.248C212.291 139.062 212.326 139.079 212.352 139.114C212.387 139.14 212.404 139.175 212.404 139.218V139.465C212.404 139.768 212.517 140.024 212.742 140.232C212.967 140.431 213.271 140.531 213.652 140.531C213.99 140.531 214.246 140.444 214.419 140.271C214.601 140.098 214.692 139.877 214.692 139.608C214.692 139.409 214.636 139.24 214.523 139.101C214.41 138.954 214.25 138.819 214.042 138.698C213.843 138.568 213.531 138.395 213.106 138.178C212.586 137.918 212.161 137.675 211.832 137.45C211.503 137.225 211.221 136.934 210.987 136.579C210.753 136.224 210.636 135.795 210.636 135.292C210.636 134.789 210.753 134.352 210.987 133.979C211.23 133.598 211.568 133.307 212.001 133.108C212.434 132.9 212.928 132.796 213.483 132.796C214.064 132.796 214.579 132.909 215.03 133.134C215.481 133.351 215.832 133.658 216.083 134.057C216.334 134.456 216.46 134.915 216.46 135.435V135.695C216.46 135.738 216.443 135.777 216.408 135.812C216.382 135.838 216.347 135.851 216.304 135.851H214.809C214.766 135.851 214.727 135.838 214.692 135.812C214.666 135.777 214.653 135.738 214.653 135.695V135.461C214.653 135.149 214.545 134.889 214.328 134.681C214.111 134.473 213.817 134.369 213.444 134.369C213.132 134.369 212.885 134.451 212.703 134.616C212.53 134.772 212.443 134.993 212.443 135.279C212.443 135.478 212.495 135.652 212.599 135.799C212.703 135.946 212.863 136.089 213.08 136.228C213.297 136.358 213.626 136.531 214.068 136.748L214.341 136.904C214.844 137.181 215.234 137.424 215.511 137.632C215.797 137.831 216.035 138.087 216.226 138.399C216.417 138.711 216.512 139.088 216.512 139.53C216.512 140.319 216.243 140.947 215.706 141.415C215.177 141.874 214.471 142.104 213.587 142.104Z" fill="#B1B4C5"/>
<path d="M95.617 255.478C95.617 256.301 95.3483 256.93 94.811 257.363C94.2823 257.788 93.5977 258 92.757 258H89.845C89.8017 258 89.7627 257.987 89.728 257.961C89.702 257.926 89.689 257.887 89.689 257.844V249.056C89.689 249.013 89.702 248.978 89.728 248.952C89.7627 248.917 89.8017 248.9 89.845 248.9H92.562C93.4893 248.9 94.2087 249.108 94.72 249.524C95.2313 249.931 95.487 250.555 95.487 251.396C95.487 252.254 95.1533 252.874 94.486 253.255C94.4427 253.281 94.4383 253.307 94.473 253.333C95.2357 253.766 95.617 254.481 95.617 255.478ZM91.587 250.473C91.5437 250.473 91.522 250.495 91.522 250.538V252.579C91.522 252.622 91.5437 252.644 91.587 252.644H92.575C92.9217 252.644 93.1947 252.549 93.394 252.358C93.5933 252.167 93.693 251.903 93.693 251.565C93.693 251.218 93.5933 250.95 93.394 250.759C93.2033 250.568 92.9303 250.473 92.575 250.473H91.587ZM92.679 256.414C93.0257 256.414 93.2943 256.314 93.485 256.115C93.6843 255.907 93.784 255.617 93.784 255.244C93.784 254.871 93.6843 254.581 93.485 254.373C93.2943 254.156 93.0257 254.048 92.679 254.048H91.587C91.5437 254.048 91.522 254.07 91.522 254.113V256.349C91.522 256.392 91.5437 256.414 91.587 256.414H92.679ZM102.298 250.317C102.298 250.36 102.281 250.399 102.246 250.434C102.22 250.46 102.186 250.473 102.142 250.473H98.6583C98.615 250.473 98.5933 250.495 98.5933 250.538V252.566C98.5933 252.609 98.615 252.631 98.6583 252.631H100.829C100.873 252.631 100.907 252.648 100.933 252.683C100.968 252.709 100.985 252.744 100.985 252.787V254.048C100.985 254.091 100.968 254.13 100.933 254.165C100.907 254.191 100.873 254.204 100.829 254.204H98.6583C98.615 254.204 98.5933 254.226 98.5933 254.269V256.362C98.5933 256.405 98.615 256.427 98.6583 256.427H102.142C102.186 256.427 102.22 256.444 102.246 256.479C102.281 256.505 102.298 256.54 102.298 256.583V257.844C102.298 257.887 102.281 257.926 102.246 257.961C102.22 257.987 102.186 258 102.142 258H96.9163C96.873 258 96.834 257.987 96.7993 257.961C96.7733 257.926 96.7603 257.887 96.7603 257.844V249.056C96.7603 249.013 96.7733 248.978 96.7993 248.952C96.834 248.917 96.873 248.9 96.9163 248.9H102.142C102.186 248.9 102.22 248.917 102.246 248.952C102.281 248.978 102.298 249.013 102.298 249.056V250.317ZM108.312 258C108.216 258 108.156 257.957 108.13 257.87L107.831 256.596C107.822 256.561 107.8 256.544 107.766 256.544H105.335C105.3 256.544 105.278 256.561 105.27 256.596L104.971 257.87C104.945 257.957 104.888 258 104.802 258H103.229C103.116 258 103.073 257.944 103.099 257.831L105.439 249.03C105.465 248.943 105.525 248.9 105.621 248.9H107.506C107.601 248.9 107.662 248.943 107.688 249.03L110.028 257.831L110.041 257.883C110.041 257.961 109.993 258 109.898 258H108.312ZM105.621 255.049C105.612 255.075 105.616 255.097 105.634 255.114C105.651 255.123 105.668 255.127 105.686 255.127H107.402C107.419 255.127 107.436 255.123 107.454 255.114C107.471 255.097 107.475 255.075 107.467 255.049L106.57 251.279C106.561 251.244 106.548 251.227 106.531 251.227C106.513 251.227 106.5 251.244 106.492 251.279L105.621 255.049ZM115.707 248.9C115.751 248.9 115.785 248.917 115.811 248.952C115.846 248.978 115.863 249.013 115.863 249.056V250.33C115.863 250.373 115.846 250.412 115.811 250.447C115.785 250.473 115.751 250.486 115.707 250.486H113.731C113.688 250.486 113.666 250.508 113.666 250.551V257.844C113.666 257.887 113.649 257.926 113.614 257.961C113.588 257.987 113.554 258 113.51 258H111.989C111.946 258 111.907 257.987 111.872 257.961C111.846 257.926 111.833 257.887 111.833 257.844V250.551C111.833 250.508 111.812 250.486 111.768 250.486H109.857C109.814 250.486 109.775 250.473 109.74 250.447C109.714 250.412 109.701 250.373 109.701 250.33V249.056C109.701 249.013 109.714 248.978 109.74 248.952C109.775 248.917 109.814 248.9 109.857 248.9H115.707ZM119.587 258.104C118.989 258.104 118.465 258 118.014 257.792C117.563 257.575 117.212 257.276 116.961 256.895C116.718 256.505 116.597 256.059 116.597 255.556V255.218C116.597 255.175 116.61 255.14 116.636 255.114C116.671 255.079 116.71 255.062 116.753 255.062H118.248C118.291 255.062 118.326 255.079 118.352 255.114C118.387 255.14 118.404 255.175 118.404 255.218V255.465C118.404 255.768 118.517 256.024 118.742 256.232C118.967 256.431 119.271 256.531 119.652 256.531C119.99 256.531 120.246 256.444 120.419 256.271C120.601 256.098 120.692 255.877 120.692 255.608C120.692 255.409 120.636 255.24 120.523 255.101C120.41 254.954 120.25 254.819 120.042 254.698C119.843 254.568 119.531 254.395 119.106 254.178C118.586 253.918 118.161 253.675 117.832 253.45C117.503 253.225 117.221 252.934 116.987 252.579C116.753 252.224 116.636 251.795 116.636 251.292C116.636 250.789 116.753 250.352 116.987 249.979C117.23 249.598 117.568 249.307 118.001 249.108C118.434 248.9 118.928 248.796 119.483 248.796C120.064 248.796 120.579 248.909 121.03 249.134C121.481 249.351 121.832 249.658 122.083 250.057C122.334 250.456 122.46 250.915 122.46 251.435V251.695C122.46 251.738 122.443 251.777 122.408 251.812C122.382 251.838 122.347 251.851 122.304 251.851H120.809C120.766 251.851 120.727 251.838 120.692 251.812C120.666 251.777 120.653 251.738 120.653 251.695V251.461C120.653 251.149 120.545 250.889 120.328 250.681C120.111 250.473 119.817 250.369 119.444 250.369C119.132 250.369 118.885 250.451 118.703 250.616C118.53 250.772 118.443 250.993 118.443 251.279C118.443 251.478 118.495 251.652 118.599 251.799C118.703 251.946 118.863 252.089 119.08 252.228C119.297 252.358 119.626 252.531 120.068 252.748L120.341 252.904C120.844 253.181 121.234 253.424 121.511 253.632C121.797 253.831 122.035 254.087 122.226 254.399C122.417 254.711 122.512 255.088 122.512 255.53C122.512 256.319 122.243 256.947 121.706 257.415C121.177 257.874 120.471 258.104 119.587 258.104Z" fill="#B1B4C5"/>
<path d="M290.617 255.478C290.617 256.301 290.348 256.93 289.811 257.363C289.282 257.788 288.598 258 287.757 258H284.845C284.802 258 284.763 257.987 284.728 257.961C284.702 257.926 284.689 257.887 284.689 257.844V249.056C284.689 249.013 284.702 248.978 284.728 248.952C284.763 248.917 284.802 248.9 284.845 248.9H287.562C288.489 248.9 289.209 249.108 289.72 249.524C290.231 249.931 290.487 250.555 290.487 251.396C290.487 252.254 290.153 252.874 289.486 253.255C289.443 253.281 289.438 253.307 289.473 253.333C290.236 253.766 290.617 254.481 290.617 255.478ZM286.587 250.473C286.544 250.473 286.522 250.495 286.522 250.538V252.579C286.522 252.622 286.544 252.644 286.587 252.644H287.575C287.922 252.644 288.195 252.549 288.394 252.358C288.593 252.167 288.693 251.903 288.693 251.565C288.693 251.218 288.593 250.95 288.394 250.759C288.203 250.568 287.93 250.473 287.575 250.473H286.587ZM287.679 256.414C288.026 256.414 288.294 256.314 288.485 256.115C288.684 255.907 288.784 255.617 288.784 255.244C288.784 254.871 288.684 254.581 288.485 254.373C288.294 254.156 288.026 254.048 287.679 254.048H286.587C286.544 254.048 286.522 254.07 286.522 254.113V256.349C286.522 256.392 286.544 256.414 286.587 256.414H287.679ZM297.298 250.317C297.298 250.36 297.281 250.399 297.246 250.434C297.22 250.46 297.186 250.473 297.142 250.473H293.658C293.615 250.473 293.593 250.495 293.593 250.538V252.566C293.593 252.609 293.615 252.631 293.658 252.631H295.829C295.873 252.631 295.907 252.648 295.933 252.683C295.968 252.709 295.985 252.744 295.985 252.787V254.048C295.985 254.091 295.968 254.13 295.933 254.165C295.907 254.191 295.873 254.204 295.829 254.204H293.658C293.615 254.204 293.593 254.226 293.593 254.269V256.362C293.593 256.405 293.615 256.427 293.658 256.427H297.142C297.186 256.427 297.22 256.444 297.246 256.479C297.281 256.505 297.298 256.54 297.298 256.583V257.844C297.298 257.887 297.281 257.926 297.246 257.961C297.22 257.987 297.186 258 297.142 258H291.916C291.873 258 291.834 257.987 291.799 257.961C291.773 257.926 291.76 257.887 291.76 257.844V249.056C291.76 249.013 291.773 248.978 291.799 248.952C291.834 248.917 291.873 248.9 291.916 248.9H297.142C297.186 248.9 297.22 248.917 297.246 248.952C297.281 248.978 297.298 249.013 297.298 249.056V250.317ZM303.312 258C303.216 258 303.156 257.957 303.13 257.87L302.831 256.596C302.822 256.561 302.8 256.544 302.766 256.544H300.335C300.3 256.544 300.278 256.561 300.27 256.596L299.971 257.87C299.945 257.957 299.888 258 299.802 258H298.229C298.116 258 298.073 257.944 298.099 257.831L300.439 249.03C300.465 248.943 300.525 248.9 300.621 248.9H302.506C302.601 248.9 302.662 248.943 302.688 249.03L305.028 257.831L305.041 257.883C305.041 257.961 304.993 258 304.898 258H303.312ZM300.621 255.049C300.612 255.075 300.616 255.097 300.634 255.114C300.651 255.123 300.668 255.127 300.686 255.127H302.402C302.419 255.127 302.436 255.123 302.454 255.114C302.471 255.097 302.475 255.075 302.467 255.049L301.57 251.279C301.561 251.244 301.548 251.227 301.531 251.227C301.513 251.227 301.5 251.244 301.492 251.279L300.621 255.049ZM310.707 248.9C310.751 248.9 310.785 248.917 310.811 248.952C310.846 248.978 310.863 249.013 310.863 249.056V250.33C310.863 250.373 310.846 250.412 310.811 250.447C310.785 250.473 310.751 250.486 310.707 250.486H308.731C308.688 250.486 308.666 250.508 308.666 250.551V257.844C308.666 257.887 308.649 257.926 308.614 257.961C308.588 257.987 308.554 258 308.51 258H306.989C306.946 258 306.907 257.987 306.872 257.961C306.846 257.926 306.833 257.887 306.833 257.844V250.551C306.833 250.508 306.812 250.486 306.768 250.486H304.857C304.814 250.486 304.775 250.473 304.74 250.447C304.714 250.412 304.701 250.373 304.701 250.33V249.056C304.701 249.013 304.714 248.978 304.74 248.952C304.775 248.917 304.814 248.9 304.857 248.9H310.707ZM314.587 258.104C313.989 258.104 313.465 258 313.014 257.792C312.563 257.575 312.212 257.276 311.961 256.895C311.718 256.505 311.597 256.059 311.597 255.556V255.218C311.597 255.175 311.61 255.14 311.636 255.114C311.671 255.079 311.71 255.062 311.753 255.062H313.248C313.291 255.062 313.326 255.079 313.352 255.114C313.387 255.14 313.404 255.175 313.404 255.218V255.465C313.404 255.768 313.517 256.024 313.742 256.232C313.967 256.431 314.271 256.531 314.652 256.531C314.99 256.531 315.246 256.444 315.419 256.271C315.601 256.098 315.692 255.877 315.692 255.608C315.692 255.409 315.636 255.24 315.523 255.101C315.41 254.954 315.25 254.819 315.042 254.698C314.843 254.568 314.531 254.395 314.106 254.178C313.586 253.918 313.161 253.675 312.832 253.45C312.503 253.225 312.221 252.934 311.987 252.579C311.753 252.224 311.636 251.795 311.636 251.292C311.636 250.789 311.753 250.352 311.987 249.979C312.23 249.598 312.568 249.307 313.001 249.108C313.434 248.9 313.928 248.796 314.483 248.796C315.064 248.796 315.579 248.909 316.03 249.134C316.481 249.351 316.832 249.658 317.083 250.057C317.334 250.456 317.46 250.915 317.46 251.435V251.695C317.46 251.738 317.443 251.777 317.408 251.812C317.382 251.838 317.347 251.851 317.304 251.851H315.809C315.766 251.851 315.727 251.838 315.692 251.812C315.666 251.777 315.653 251.738 315.653 251.695V251.461C315.653 251.149 315.545 250.889 315.328 250.681C315.111 250.473 314.817 250.369 314.444 250.369C314.132 250.369 313.885 250.451 313.703 250.616C313.53 250.772 313.443 250.993 313.443 251.279C313.443 251.478 313.495 251.652 313.599 251.799C313.703 251.946 313.863 252.089 314.08 252.228C314.297 252.358 314.626 252.531 315.068 252.748L315.341 252.904C315.844 253.181 316.234 253.424 316.511 253.632C316.797 253.831 317.035 254.087 317.226 254.399C317.417 254.711 317.512 255.088 317.512 255.53C317.512 256.319 317.243 256.947 316.706 257.415C316.177 257.874 315.471 258.104 314.587 258.104Z" fill="#B1B4C5"/>
<rect width="50" height="4" rx="2" transform="matrix(-1 0 0 1 226 161)" fill="#B1B4C5"/>
<path fill-rule="evenodd" clip-rule="evenodd" d="M186.645 153.009C185.921 152.287 184.747 152.293 184.029 153.022L175.439 161.75C174.728 162.473 174.734 163.635 175.452 164.351C176.177 165.072 177.351 165.067 178.068 164.338L186.658 155.609C187.369 154.887 187.364 153.725 186.645 153.009Z" fill="#B1B4C5"/>
<path fill-rule="evenodd" clip-rule="evenodd" d="M186.645 172.991C187.364 172.275 187.369 171.113 186.658 170.391L178.068 161.662C177.35 160.933 176.177 160.927 175.452 161.649C174.734 162.365 174.728 163.527 175.439 164.25L184.029 172.978C184.747 173.707 185.92 173.713 186.645 172.991Z" fill="#B1B4C5"/>
<rect width="50" height="4" rx="2" transform="matrix(0.573576 0.819152 0.819152 -0.573576 129.449 229.849)" fill="#B1B4C5"/>
<path fill-rule="evenodd" clip-rule="evenodd" d="M145.476 266.67C145.3 267.678 145.978 268.636 146.987 268.805L159.064 270.836C160.064 271.004 161.012 270.333 161.186 269.334C161.362 268.326 160.684 267.368 159.675 267.198L147.599 265.168C146.598 265 145.65 265.671 145.476 266.67Z" fill="#B1B4C5"/>
<path fill-rule="evenodd" clip-rule="evenodd" d="M161.844 255.209C160.846 255.031 159.891 255.693 159.707 256.69L157.484 268.733C157.298 269.739 157.967 270.703 158.974 270.883C159.972 271.061 160.927 270.4 161.111 269.402L163.334 257.359C163.519 256.354 162.851 255.389 161.844 255.209Z" fill="#B1B4C5"/>
<rect x="244.449" y="270.151" width="50" height="4" rx="2" transform="rotate(-55 244.449 270.151)" fill="#B1B4C5"/>
<path fill-rule="evenodd" clip-rule="evenodd" d="M260.476 233.33C260.3 232.322 260.978 231.364 261.987 231.195L274.064 229.164C275.064 228.996 276.012 229.667 276.186 230.666C276.362 231.674 275.684 232.632 274.675 232.802L262.599 234.832C261.598 235 260.65 234.329 260.476 233.33Z" fill="#B1B4C5"/>
<path fill-rule="evenodd" clip-rule="evenodd" d="M276.844 244.791C275.846 244.969 274.891 244.307 274.707 243.31L272.484 231.267C272.298 230.261 272.967 229.297 273.974 229.117C274.972 228.939 275.927 229.6 276.111 230.598L278.334 242.641C278.519 243.646 277.851 244.611 276.844 244.791Z" fill="#B1B4C5"/>
<path d="M44.224 61C43.9893 61 43.84 60.8933 43.776 60.68L40.544 51.848C40.5013 51.7627 40.448 51.72 40.384 51.72H38.368C38.2613 51.72 38.208 51.7733 38.208 51.88V60.616C38.208 60.7227 38.1653 60.8187 38.08 60.904C38.016 60.968 37.9307 61 37.824 61H34.08C33.9733 61 33.8773 60.968 33.792 60.904C33.728 60.8187 33.696 60.7227 33.696 60.616V38.984C33.696 38.8773 33.728 38.792 33.792 38.728C33.8773 38.6427 33.9733 38.6 34.08 38.6H41.888C43.1467 38.6 44.2667 38.888 45.248 39.464C46.2293 40.0187 46.9867 40.808 47.52 41.832C48.0533 42.856 48.32 44.0293 48.32 45.352C48.32 46.7173 48.0213 47.9013 47.424 48.904C46.8267 49.9067 45.984 50.6533 44.896 51.144C44.7893 51.1867 44.7573 51.2613 44.8 51.368L48.448 60.552C48.4693 60.5947 48.48 60.648 48.48 60.712C48.48 60.904 48.3627 61 48.128 61H44.224ZM38.368 42.472C38.2613 42.472 38.208 42.5253 38.208 42.632V48.104C38.208 48.2107 38.2613 48.264 38.368 48.264H41.152C41.9413 48.264 42.5813 48.008 43.072 47.496C43.5627 46.9627 43.808 46.2587 43.808 45.384C43.808 44.488 43.5627 43.784 43.072 43.272C42.5813 42.7387 41.9413 42.472 41.152 42.472H38.368ZM58.239 61.256C56.7883 61.256 55.5083 60.9573 54.399 60.36C53.2897 59.7627 52.4257 58.9307 51.807 57.864C51.2097 56.776 50.911 55.528 50.911 54.12V38.984C50.911 38.8773 50.943 38.792 51.007 38.728C51.0923 38.6427 51.1883 38.6 51.295 38.6H55.039C55.1457 38.6 55.231 38.6427 55.295 38.728C55.3803 38.792 55.423 38.8773 55.423 38.984V54.344C55.423 55.2613 55.679 55.9973 56.191 56.552C56.703 57.1067 57.3857 57.384 58.239 57.384C59.0923 57.384 59.775 57.1067 60.287 56.552C60.799 55.9973 61.055 55.2613 61.055 54.344V38.984C61.055 38.8773 61.087 38.792 61.151 38.728C61.2363 38.6427 61.3323 38.6 61.439 38.6H65.183C65.2897 38.6 65.375 38.6427 65.439 38.728C65.5243 38.792 65.567 38.8773 65.567 38.984V54.12C65.567 55.528 65.2577 56.776 64.639 57.864C64.0417 58.9307 63.1883 59.7627 62.079 60.36C60.9697 60.9573 59.6897 61.256 58.239 61.256ZM69.1738 61C69.0671 61 68.9711 60.968 68.8858 60.904C68.8218 60.8187 68.7898 60.7227 68.7898 60.616V38.984C68.7898 38.8773 68.8218 38.792 68.8858 38.728C68.9711 38.6427 69.0671 38.6 69.1738 38.6H72.9178C73.0244 38.6 73.1098 38.6427 73.1738 38.728C73.2591 38.792 73.3018 38.8773 73.3018 38.984V56.968C73.3018 57.0747 73.3551 57.128 73.4618 57.128H82.0378C82.1444 57.128 82.2298 57.1707 82.2938 57.256C82.3791 57.32 82.4218 57.4053 82.4218 57.512V60.616C82.4218 60.7227 82.3791 60.8187 82.2938 60.904C82.2298 60.968 82.1444 61 82.0378 61H69.1738ZM98.3905 42.088C98.3905 42.1947 98.3478 42.2907 98.2625 42.376C98.1985 42.44 98.1132 42.472 98.0065 42.472H89.4305C89.3238 42.472 89.2705 42.5253 89.2705 42.632V47.624C89.2705 47.7307 89.3238 47.784 89.4305 47.784H94.7745C94.8812 47.784 94.9665 47.8267 95.0305 47.912C95.1158 47.976 95.1585 48.0613 95.1585 48.168V51.272C95.1585 51.3787 95.1158 51.4747 95.0305 51.56C94.9665 51.624 94.8812 51.656 94.7745 51.656H89.4305C89.3238 51.656 89.2705 51.7093 89.2705 51.816V56.968C89.2705 57.0747 89.3238 57.128 89.4305 57.128H98.0065C98.1132 57.128 98.1985 57.1707 98.2625 57.256C98.3478 57.32 98.3905 57.4053 98.3905 57.512V60.616C98.3905 60.7227 98.3478 60.8187 98.2625 60.904C98.1985 60.968 98.1132 61 98.0065 61H85.1425C85.0358 61 84.9398 60.968 84.8545 60.904C84.7905 60.8187 84.7585 60.7227 84.7585 60.616V38.984C84.7585 38.8773 84.7905 38.792 84.8545 38.728C84.9398 38.6427 85.0358 38.6 85.1425 38.6H98.0065C98.1132 38.6 98.1985 38.6427 98.2625 38.728C98.3478 38.792 98.3905 38.8773 98.3905 38.984V42.088ZM107.822 61.256C106.35 61.256 105.06 61 103.95 60.488C102.841 59.9547 101.977 59.2187 101.358 58.28C100.761 57.32 100.462 56.2213 100.462 54.984V54.152C100.462 54.0453 100.494 53.96 100.558 53.896C100.644 53.8107 100.74 53.768 100.846 53.768H104.526C104.633 53.768 104.718 53.8107 104.782 53.896C104.868 53.96 104.91 54.0453 104.91 54.152V54.76C104.91 55.5067 105.188 56.136 105.742 56.648C106.297 57.1387 107.044 57.384 107.982 57.384C108.814 57.384 109.444 57.1707 109.87 56.744C110.318 56.3173 110.542 55.7733 110.542 55.112C110.542 54.6213 110.404 54.2053 110.126 53.864C109.849 53.5013 109.454 53.1707 108.942 52.872C108.452 52.552 107.684 52.1253 106.638 51.592C105.358 50.952 104.313 50.3547 103.502 49.8C102.692 49.2453 101.998 48.5307 101.422 47.656C100.846 46.7813 100.558 45.7253 100.558 44.488C100.558 43.2507 100.846 42.1733 101.422 41.256C102.02 40.3173 102.852 39.6027 103.918 39.112C104.985 38.6 106.201 38.344 107.566 38.344C108.996 38.344 110.265 38.6213 111.374 39.176C112.484 39.7093 113.348 40.4667 113.966 41.448C114.585 42.4293 114.894 43.56 114.894 44.84V45.48C114.894 45.5867 114.852 45.6827 114.766 45.768C114.702 45.832 114.617 45.864 114.51 45.864H110.83C110.724 45.864 110.628 45.832 110.542 45.768C110.478 45.6827 110.446 45.5867 110.446 45.48V44.904C110.446 44.136 110.18 43.496 109.646 42.984C109.113 42.472 108.388 42.216 107.47 42.216C106.702 42.216 106.094 42.4187 105.646 42.824C105.22 43.208 105.006 43.752 105.006 44.456C105.006 44.9467 105.134 45.3733 105.39 45.736C105.646 46.0987 106.041 46.4507 106.574 46.792C107.108 47.112 107.918 47.5387 109.006 48.072L109.678 48.456C110.916 49.1387 111.876 49.736 112.558 50.248C113.262 50.7387 113.849 51.368 114.318 52.136C114.788 52.904 115.022 53.832 115.022 54.92C115.022 56.8613 114.361 58.408 113.038 59.56C111.737 60.6907 109.998 61.256 107.822 61.256Z" fill="#3B4262"/>
<path opacity="0.25" fill-rule="evenodd" clip-rule="evenodd" d="M368.092 40.1213L365.971 38L358.546 45.4246L351.121 38L349 40.1213L356.425 47.5459L349 54.9706L351.121 57.0919L358.546 49.6673L365.971 57.0919L368.092 54.9706L360.667 47.5459L368.092 40.1213Z" fill="#3B4262"/>
</g>
<defs>
<filter id="filter0_d_0_1461" x="-3" y="0" width="406" height="421" filterUnits="userSpaceOnUse" color-interpolation-filters="sRGB">
<feFlood flood-opacity="0" result="BackgroundImageFix"/>
<feColorMatrix in="SourceAlpha" type="matrix" values="0 0 0 0 0 0 0 0 0 0 0 0 0 0 0 0 0 0 127 0" result="hardAlpha"/>
<feOffset dy="3"/>
<feGaussianBlur stdDeviation="1.5"/>
<feColorMatrix type="matrix" values="0 0 0 0 0 0 0 0 0 0 0 0 0 0 0 0 0 0 0.196706 0"/>
<feBlend mode="normal" in2="BackgroundImageFix" result="effect1_dropShadow_0_1461"/>
<feBlend mode="normal" in="SourceGraphic" in2="effect1_dropShadow_0_1461" result="shape"/>
</filter>
<linearGradient id="paint0_linear_0_1461" x1="49" y1="112" x2="49" y2="216.77" gradientUnits="userSpaceOnUse">
<stop stop-color="white" stop-opacity="0.0966455"/>
<stop offset="1" stop-color="white" stop-opacity="0.01"/>
</linearGradient>
<linearGradient id="paint1_linear_0_1461" x1="245" y1="112" x2="245" y2="216.77" gradientUnits="userSpaceOnUse">
<stop stop-color="white" stop-opacity="0.0966455"/>
<stop offset="1" stop-color="white" stop-opacity="0.01"/>
</linearGradient>
<linearGradient id="paint2_linear_0_1461" x1="147" y1="272" x2="147" y2="376.77" gradientUnits="userSpaceOnUse">
<stop stop-color="white" stop-opacity="0.0966455"/>
<stop offset="1" stop-color="white" stop-opacity="0.01"/>
</linearGradient>
<clipPath id="clip0_0_1461">
<rect width="400" height="415" fill="white"/>
</clipPath>
</defs>
</svg>
