<svg width="156" height="94" viewBox="0 0 156 94" fill="none" xmlns="http://www.w3.org/2000/svg">
<path id="tipa-logo" fill-rule="evenodd" clip-rule="evenodd" d="M36.5199 28.24C35.1066 28.9867 33.4799 29.36 31.6399 29.36C29.7999 29.36 28.1799 28.9867 26.7799 28.24C25.3799 27.4933 24.2933 26.44 23.5199 25.08C22.7466 23.72 22.3599 22.1333 22.3599 20.32V9.68C22.3599 7.89333 22.7466 6.32 23.5199 4.96C24.2933 3.6 25.3799 2.54667 26.7799 1.8C28.1799 1.05333 29.7999 0.68 31.6399 0.68C33.4799 0.68 35.1066 1.05333 36.5199 1.8C37.9333 2.54667 39.0266 3.6 39.7999 4.96C40.5733 6.32 40.9599 7.89333 40.9599 9.68V20.32C40.9599 22.1333 40.5733 23.72 39.7999 25.08C39.0266 26.44 37.9333 27.4933 36.5199 28.24ZM6.27995 29C6.41328 29 6.52661 28.9533 6.61995 28.86C6.71328 28.7667 6.75995 28.6533 6.75995 28.52V17.6C6.75995 17.4667 6.82661 17.4 6.95995 17.4H9.47995C9.55995 17.4 9.62661 17.4533 9.67995 17.56L13.7199 28.6C13.7999 28.8667 13.9866 29 14.2799 29H19.1599C19.4533 29 19.5999 28.88 19.5999 28.64C19.5999 28.56 19.5866 28.4933 19.5599 28.44L14.9999 16.96C14.9466 16.8267 14.9866 16.7333 15.1199 16.68C16.4799 16.0667 17.5333 15.1333 18.2799 13.88C19.0266 12.6267 19.3999 11.1467 19.3999 9.44C19.3999 7.78667 19.0666 6.32 18.3999 5.04C17.7333 3.76 16.7866 2.76667 15.5599 2.06C14.3333 1.35333 12.9333 1 11.3599 1H1.59995C1.46661 1 1.35328 1.04667 1.25995 1.14C1.16661 1.23333 1.11995 1.34667 1.11995 1.48V28.52C1.11995 28.6533 1.16661 28.7667 1.25995 28.86C1.35328 28.9533 1.46661 29 1.59995 29H6.27995ZM10.4399 13.08H6.95995C6.82661 13.08 6.75995 13.0133 6.75995 12.88V6.04C6.75995 5.90667 6.82661 5.84 6.95995 5.84H10.4399C11.4266 5.84 12.2266 6.16667 12.8399 6.82C13.4533 7.47333 13.7599 8.36 13.7599 9.48C13.7599 10.5733 13.4533 11.4467 12.8399 12.1C12.2266 12.7533 11.4266 13.08 10.4399 13.08ZM31.6399 24.52C30.5466 24.52 29.6666 24.1533 28.9999 23.42C28.3333 22.6867 27.9999 21.7333 27.9999 20.56V9.52C27.9999 8.32 28.3333 7.35333 28.9999 6.62C29.6666 5.88667 30.5466 5.52 31.6399 5.52C32.7599 5.52 33.6533 5.88667 34.3199 6.62C34.9866 7.35333 35.3199 8.32 35.3199 9.52V20.56C35.3199 21.7333 34.9866 22.6867 34.3199 23.42C33.6533 24.1533 32.7599 24.52 31.6399 24.52ZM61.4199 25.24C60.6599 26.5467 59.5866 27.5533 58.1999 28.26C56.8133 28.9667 55.2133 29.32 53.3999 29.32C51.5866 29.32 49.9866 28.96 48.5999 28.24C47.2133 27.52 46.1399 26.4933 45.3799 25.16C44.6199 23.8267 44.2399 22.28 44.2399 20.52V9.4C44.2399 7.66667 44.6199 6.14 45.3799 4.82C46.1399 3.5 47.2133 2.48 48.5999 1.76C49.9866 1.04 51.5866 0.68 53.3999 0.68C55.2133 0.68 56.8133 1.03333 58.1999 1.74C59.5866 2.44667 60.6599 3.44 61.4199 4.72C62.1799 6 62.5599 7.49333 62.5599 9.2V9.4C62.5599 9.53333 62.5133 9.65333 62.4199 9.76C62.3266 9.86667 62.2133 9.92 62.0799 9.92L57.3999 10.12C57.0799 10.12 56.9199 9.97333 56.9199 9.68V9.16C56.9199 8.06667 56.5999 7.18667 55.9599 6.52C55.3199 5.85333 54.4666 5.52 53.3999 5.52C52.3333 5.52 51.4799 5.85333 50.8399 6.52C50.1999 7.18667 49.8799 8.06667 49.8799 9.16V20.88C49.8799 21.9733 50.1999 22.8467 50.8399 23.5C51.4799 24.1533 52.3333 24.48 53.3999 24.48C54.4666 24.48 55.3199 24.1533 55.9599 23.5C56.5999 22.8467 56.9199 21.9733 56.9199 20.88V20.36C56.9199 20.0667 57.0799 19.92 57.3999 19.92L62.0799 20.12C62.2133 20.12 62.3266 20.1667 62.4199 20.26C62.5133 20.3533 62.5599 20.4667 62.5599 20.6V20.72C62.5599 22.4267 62.1799 23.9333 61.4199 25.24ZM71.3199 29C71.4533 29 71.5666 28.9533 71.6599 28.86C71.7533 28.7667 71.7999 28.6533 71.7999 28.52V20.52C71.7999 20.4667 71.8266 20.3867 71.8799 20.28L73.6799 17.68C73.7333 17.6 73.7866 17.56 73.8399 17.56C73.8933 17.56 73.9333 17.6 73.9599 17.68L79.6399 28.64C79.7733 28.88 79.9599 29 80.1999 29H85.3199C85.6133 29 85.7599 28.8933 85.7599 28.68C85.7599 28.6267 85.7333 28.5467 85.6799 28.44L77.8399 13.32C77.8133 13.2133 77.8133 13.12 77.8399 13.04L85.2399 1.56C85.3466 1.4 85.3666 1.26667 85.2999 1.16C85.2333 1.05333 85.1066 1 84.9199 1H79.7599C79.5199 1 79.3333 1.10667 79.1999 1.32L72.0399 12.2C72.0133 12.28 71.9666 12.3067 71.8999 12.28C71.8333 12.2533 71.7999 12.2 71.7999 12.12V1.48C71.7999 1.34667 71.7533 1.23333 71.6599 1.14C71.5666 1.04667 71.4533 1 71.3199 1H66.6399C66.5066 1 66.3933 1.04667 66.2999 1.14C66.2066 1.23333 66.1599 1.34667 66.1599 1.48V28.52C66.1599 28.6533 66.2066 28.7667 66.2999 28.86C66.3933 28.9533 66.5066 29 66.6399 29H71.3199ZM6.49995 60.86C6.40661 60.9533 6.29328 61 6.15995 61H1.47995C1.34661 61 1.23328 60.9533 1.13995 60.86C1.04661 60.7667 0.999946 60.6533 0.999946 60.52V33.44C0.999946 33.3067 1.04661 33.1933 1.13995 33.1C1.23328 33.0067 1.34661 32.96 1.47995 32.96H11.1599C12.7599 32.96 14.1799 33.32 15.4199 34.04C16.6599 34.76 17.6199 35.7733 18.2999 37.08C18.9799 38.3867 19.3199 39.88 19.3199 41.56C19.3199 43.2133 18.9799 44.6733 18.2999 45.94C17.6199 47.2067 16.6599 48.1867 15.4199 48.88C14.1799 49.5733 12.7599 49.92 11.1599 49.92H6.83995C6.70661 49.92 6.63995 49.9867 6.63995 50.12V60.52C6.63995 60.6533 6.59328 60.7667 6.49995 60.86ZM10.2399 45.44H6.83995C6.70661 45.44 6.63995 45.3733 6.63995 45.24V38.04C6.63995 37.9067 6.70661 37.84 6.83995 37.84H10.2399C11.2799 37.84 12.1133 38.1867 12.7399 38.88C13.3666 39.5733 13.6799 40.5067 13.6799 41.68C13.6799 42.8267 13.3666 43.74 12.7399 44.42C12.1133 45.1 11.2799 45.44 10.2399 45.44ZM26.8799 60.6C26.7999 60.8667 26.6266 61 26.3599 61H21.5199C21.1733 61 21.0399 60.8267 21.1199 60.48L28.3199 33.4C28.3999 33.1333 28.5866 33 28.8799 33H34.6799C34.9733 33 35.1599 33.1333 35.2399 33.4L42.4399 60.48L42.4799 60.64C42.4799 60.88 42.3333 61 42.0399 61H37.1599C36.8666 61 36.6799 60.8667 36.5999 60.6L35.6799 56.68C35.6533 56.5733 35.5866 56.52 35.4799 56.52H27.9999C27.8933 56.52 27.8266 56.5733 27.7999 56.68L26.8799 60.6ZM34.3599 52.16H29.0799C29.0266 52.16 28.9733 52.14 28.9199 52.1C28.8666 52.06 28.8533 52 28.8799 51.92L31.5599 40.32C31.5866 40.2133 31.6266 40.16 31.6799 40.16C31.7333 40.16 31.7733 40.2133 31.7999 40.32L34.5599 51.92C34.5866 52 34.5733 52.06 34.5199 52.1C34.4666 52.14 34.4133 52.16 34.3599 52.16ZM50.8199 60.86C50.7266 60.9533 50.6133 61 50.4799 61H45.7999C45.6666 61 45.5533 60.9533 45.4599 60.86C45.3666 60.7667 45.3199 60.6533 45.3199 60.52V33.44C45.3199 33.3067 45.3666 33.1933 45.4599 33.1C45.5533 33.0067 45.6666 32.96 45.7999 32.96H55.4799C57.0799 32.96 58.4999 33.32 59.7399 34.04C60.9799 34.76 61.9399 35.7733 62.6199 37.08C63.2999 38.3867 63.6399 39.88 63.6399 41.56C63.6399 43.2133 63.2999 44.6733 62.6199 45.94C61.9399 47.2067 60.9799 48.1867 59.7399 48.88C58.4999 49.5733 57.0799 49.92 55.4799 49.92H51.1599C51.0266 49.92 50.9599 49.9867 50.9599 50.12V60.52C50.9599 60.6533 50.9133 60.7667 50.8199 60.86ZM54.5599 45.44H51.1599C51.0266 45.44 50.9599 45.3733 50.9599 45.24V38.04C50.9599 37.9067 51.0266 37.84 51.1599 37.84H54.5599C55.5999 37.84 56.4333 38.1867 57.0599 38.88C57.6866 39.5733 57.9999 40.5067 57.9999 41.68C57.9999 42.8267 57.6866 43.74 57.0599 44.42C56.4333 45.1 55.5999 45.44 54.5599 45.44ZM83.5799 60.86C83.4866 60.9533 83.3733 61 83.2399 61H67.16C67.0266 61 66.9133 60.9533 66.8199 60.86C66.7266 60.7667 66.6799 60.6533 66.6799 60.52V33.48C66.6799 33.3467 66.7266 33.2333 66.8199 33.14C66.9133 33.0467 67.0266 33 67.16 33H83.2399C83.3733 33 83.4866 33.0467 83.5799 33.14C83.6733 33.2333 83.7199 33.3467 83.7199 33.48V37.36C83.7199 37.4933 83.6733 37.6067 83.5799 37.7C83.4866 37.7933 83.3733 37.84 83.2399 37.84H72.5199C72.3866 37.84 72.3199 37.9067 72.3199 38.04V44.28C72.3199 44.4133 72.3866 44.48 72.5199 44.48H79.2C79.3333 44.48 79.4466 44.5267 79.5399 44.62C79.6333 44.7133 79.6799 44.8267 79.6799 44.96V48.84C79.6799 48.9733 79.6333 49.0867 79.5399 49.18C79.4466 49.2733 79.3333 49.32 79.2 49.32H72.5199C72.3866 49.32 72.3199 49.3867 72.3199 49.52V55.96C72.3199 56.0933 72.3866 56.16 72.5199 56.16H83.2399C83.3733 56.16 83.4866 56.2067 83.5799 56.3C83.6733 56.3933 83.7199 56.5067 83.7199 56.64V60.52C83.7199 60.6533 83.6733 60.7667 83.5799 60.86ZM92.28 61C92.4133 61 92.5266 60.9533 92.6199 60.86C92.7133 60.7667 92.7599 60.6533 92.7599 60.52V49.6C92.7599 49.4667 92.8266 49.4 92.9599 49.4H95.4799C95.56 49.4 95.6266 49.4533 95.6799 49.56L99.7199 60.6C99.7999 60.8667 99.9866 61 100.28 61H105.16C105.453 61 105.6 60.88 105.6 60.64C105.6 60.56 105.587 60.4933 105.56 60.44L101 48.96C100.947 48.8267 100.987 48.7333 101.12 48.68C102.48 48.0667 103.533 47.1333 104.28 45.88C105.027 44.6267 105.4 43.1467 105.4 41.44C105.4 39.7867 105.067 38.32 104.4 37.04C103.733 35.76 102.787 34.7667 101.56 34.06C100.333 33.3533 98.9333 33 97.3599 33H87.6C87.4666 33 87.3533 33.0467 87.2599 33.14C87.1666 33.2333 87.1199 33.3467 87.1199 33.48V60.52C87.1199 60.6533 87.1666 60.7667 87.2599 60.86C87.3533 60.9533 87.4666 61 87.6 61H92.28ZM92.9599 45.08H96.4399C97.4266 45.08 98.2266 44.7533 98.84 44.1C99.4533 43.4467 99.7599 42.5733 99.7599 41.48C99.7599 40.36 99.4533 39.4733 98.84 38.82C98.2266 38.1667 97.4266 37.84 96.4399 37.84H92.9599C92.8266 37.84 92.7599 37.9067 92.7599 38.04V44.88C92.7599 45.0133 92.8266 45.08 92.9599 45.08ZM9.51995 93.32C12.2399 93.32 14.4199 92.6067 16.0599 91.18C17.6999 89.7533 18.5199 87.8267 18.5199 85.4C18.5199 84.04 18.2266 82.88 17.6399 81.92C17.0533 80.96 16.3266 80.1667 15.4599 79.54C14.5933 78.9133 13.3866 78.1733 11.8399 77.32L10.9999 76.84C9.63995 76.1733 8.62661 75.6333 7.95995 75.22C7.29328 74.8067 6.79995 74.3733 6.47995 73.92C6.15995 73.4667 5.99995 72.9333 5.99995 72.32C5.99995 71.44 6.27328 70.7533 6.81995 70.26C7.36661 69.7667 8.11995 69.52 9.07995 69.52C10.2266 69.52 11.1333 69.84 11.7999 70.48C12.4666 71.12 12.7999 71.92 12.7999 72.88V73.6C12.7999 73.7333 12.8466 73.8467 12.9399 73.94C13.0333 74.0333 13.1466 74.08 13.2799 74.08H17.8799C18.0133 74.08 18.1266 74.0333 18.2199 73.94C18.3133 73.8467 18.3599 73.7333 18.3599 73.6V72.8C18.3599 71.2 17.9733 69.7867 17.1999 68.56C16.4266 67.3333 15.3466 66.38 13.9599 65.7C12.5733 65.02 10.9866 64.68 9.19995 64.68C7.49328 64.68 5.97328 64.9933 4.63995 65.62C3.30661 66.2467 2.27328 67.14 1.53995 68.3C0.806613 69.46 0.439946 70.8133 0.439946 72.36C0.439946 73.9067 0.799946 75.2267 1.51995 76.32C2.23995 77.4133 3.10661 78.3067 4.11995 79C5.13328 79.6933 6.43995 80.44 8.03995 81.24C9.34661 81.9067 10.3133 82.4333 10.9399 82.82C11.5666 83.2067 12.0533 83.62 12.3999 84.06C12.7466 84.5 12.9199 85.0267 12.9199 85.64C12.9199 86.4667 12.6466 87.1467 12.0999 87.68C11.5533 88.2133 10.7599 88.48 9.71995 88.48C8.54661 88.48 7.61328 88.1667 6.91995 87.54C6.22661 86.9133 5.87995 86.1333 5.87995 85.2V84.44C5.87995 84.3067 5.83328 84.1933 5.73995 84.1C5.64661 84.0067 5.53328 83.96 5.39995 83.96H0.799946C0.666613 83.96 0.55328 84.0067 0.459946 84.1C0.366613 84.1933 0.319946 84.3067 0.319946 84.44V85.48C0.319946 87.0267 0.699946 88.3933 1.45995 89.58C2.21995 90.7667 3.29328 91.6867 4.67995 92.34C6.06661 92.9933 7.67995 93.32 9.51995 93.32ZM38.6199 89.24C37.8599 90.5467 36.7866 91.5533 35.3999 92.26C34.0133 92.9667 32.4133 93.32 30.5999 93.32C28.7866 93.32 27.1866 92.96 25.7999 92.24C24.4133 91.52 23.3399 90.4933 22.5799 89.16C21.8199 87.8267 21.4399 86.28 21.4399 84.52V73.4C21.4399 71.6667 21.8199 70.14 22.5799 68.82C23.3399 67.5 24.4133 66.48 25.7999 65.76C27.1866 65.04 28.7866 64.68 30.5999 64.68C32.4133 64.68 34.0133 65.0333 35.3999 65.74C36.7866 66.4467 37.8599 67.44 38.6199 68.72C39.3799 70 39.7599 71.4933 39.7599 73.2V73.4C39.7599 73.5333 39.7133 73.6533 39.6199 73.76C39.5266 73.8667 39.4133 73.92 39.2799 73.92L34.5999 74.12C34.2799 74.12 34.1199 73.9733 34.1199 73.68V73.16C34.1199 72.0667 33.7999 71.1867 33.1599 70.52C32.5199 69.8533 31.6666 69.52 30.5999 69.52C29.5333 69.52 28.6799 69.8533 28.0399 70.52C27.3999 71.1867 27.0799 72.0667 27.0799 73.16V84.88C27.0799 85.9733 27.3999 86.8467 28.0399 87.5C28.6799 88.1533 29.5333 88.48 30.5999 88.48C31.6666 88.48 32.5199 88.1533 33.1599 87.5C33.7999 86.8467 34.1199 85.9733 34.1199 84.88V84.36C34.1199 84.0667 34.2799 83.92 34.5999 83.92L39.2799 84.12C39.4133 84.12 39.5266 84.1667 39.6199 84.26C39.7133 84.3533 39.7599 84.4667 39.7599 84.6V84.72C39.7599 86.4267 39.3799 87.9333 38.6199 89.24ZM48.5199 93C48.6533 93 48.7666 92.9533 48.8599 92.86C48.9533 92.7667 48.9999 92.6533 48.9999 92.52V65.48C48.9999 65.3467 48.9533 65.2333 48.8599 65.14C48.7666 65.0467 48.6533 65 48.5199 65H43.8399C43.7066 65 43.5933 65.0467 43.4999 65.14C43.4066 65.2333 43.3599 65.3467 43.3599 65.48V92.52C43.3599 92.6533 43.4066 92.7667 43.4999 92.86C43.5933 92.9533 43.7066 93 43.8399 93H48.5199ZM68.1399 91.18C66.4999 92.6067 64.3199 93.32 61.5999 93.32C59.7599 93.32 58.1466 92.9933 56.7599 92.34C55.3733 91.6867 54.2999 90.7667 53.5399 89.58C52.7799 88.3933 52.3999 87.0267 52.3999 85.48V84.44C52.3999 84.3067 52.4466 84.1933 52.5399 84.1C52.6333 84.0067 52.7466 83.96 52.8799 83.96H57.4799C57.6133 83.96 57.7266 84.0067 57.8199 84.1C57.9133 84.1933 57.9599 84.3067 57.9599 84.44V85.2C57.9599 86.1333 58.3066 86.9133 58.9999 87.54C59.6933 88.1667 60.6266 88.48 61.7999 88.48C62.8399 88.48 63.6333 88.2133 64.1799 87.68C64.7266 87.1467 64.9999 86.4667 64.9999 85.64C64.9999 85.0267 64.8266 84.5 64.4799 84.06C64.1333 83.62 63.6466 83.2067 63.0199 82.82C62.3933 82.4333 61.4266 81.9067 60.1199 81.24C58.5199 80.44 57.2133 79.6933 56.1999 79C55.1866 78.3067 54.3199 77.4133 53.5999 76.32C52.8799 75.2267 52.5199 73.9067 52.5199 72.36C52.5199 70.8133 52.8866 69.46 53.6199 68.3C54.3533 67.14 55.3866 66.2467 56.7199 65.62C58.0533 64.9933 59.5733 64.68 61.2799 64.68C63.0666 64.68 64.6533 65.02 66.0399 65.7C67.4266 66.38 68.5066 67.3333 69.2799 68.56C70.0533 69.7867 70.4399 71.2 70.4399 72.8V73.6C70.4399 73.7333 70.3933 73.8467 70.2999 73.94C70.2066 74.0333 70.0933 74.08 69.9599 74.08H65.3599C65.2266 74.08 65.1133 74.0333 65.02 73.94C64.9266 73.8467 64.8799 73.7333 64.8799 73.6V72.88C64.8799 71.92 64.5466 71.12 63.8799 70.48C63.2133 69.84 62.3066 69.52 61.16 69.52C60.1999 69.52 59.4466 69.7667 58.8999 70.26C58.3533 70.7533 58.0799 71.44 58.0799 72.32C58.0799 72.9333 58.2399 73.4667 58.5599 73.92C58.8799 74.3733 59.3733 74.8067 60.0399 75.22C60.7066 75.6333 61.7199 76.1733 63.0799 76.84L63.9199 77.32C65.4666 78.1733 66.6733 78.9133 67.5399 79.54C68.4066 80.1667 69.1333 80.96 69.7199 81.92C70.3066 82.88 70.5999 84.04 70.5999 85.4C70.5999 87.8267 69.7799 89.7533 68.1399 91.18ZM82.3999 93.32C85.1199 93.32 87.2999 92.6067 88.9399 91.18C90.5799 89.7533 91.3999 87.8267 91.3999 85.4C91.3999 84.04 91.1066 82.88 90.5199 81.92C89.9333 80.96 89.2066 80.1667 88.3399 79.54C87.4733 78.9133 86.2666 78.1733 84.7199 77.32L83.8799 76.84C82.5199 76.1733 81.5066 75.6333 80.8399 75.22C80.1733 74.8067 79.6799 74.3733 79.3599 73.92C79.0399 73.4667 78.8799 72.9333 78.8799 72.32C78.8799 71.44 79.1533 70.7533 79.6999 70.26C80.2466 69.7667 80.9999 69.52 81.9599 69.52C83.1066 69.52 84.0133 69.84 84.6799 70.48C85.3466 71.12 85.6799 71.92 85.6799 72.88V73.6C85.6799 73.7333 85.7266 73.8467 85.8199 73.94C85.9133 74.0333 86.0266 74.08 86.1599 74.08H90.7599C90.8933 74.08 91.0066 74.0333 91.0999 73.94C91.1933 73.8467 91.2399 73.7333 91.2399 73.6V72.8C91.2399 71.2 90.8533 69.7867 90.0799 68.56C89.3066 67.3333 88.2266 66.38 86.8399 65.7C85.4533 65.02 83.8666 64.68 82.0799 64.68C80.3733 64.68 78.8533 64.9933 77.5199 65.62C76.1866 66.2467 75.1533 67.14 74.4199 68.3C73.6866 69.46 73.3199 70.8133 73.3199 72.36C73.3199 73.9067 73.6799 75.2267 74.3999 76.32C75.1199 77.4133 75.9866 78.3067 76.9999 79C78.0133 79.6933 79.3199 80.44 80.9199 81.24C82.2266 81.9067 83.1933 82.4333 83.8199 82.82C84.4466 83.2067 84.9333 83.62 85.2799 84.06C85.6266 84.5 85.7999 85.0267 85.7999 85.64C85.7999 86.4667 85.5266 87.1467 84.9799 87.68C84.4333 88.2133 83.6399 88.48 82.5999 88.48C81.4266 88.48 80.4933 88.1667 79.7999 87.54C79.1066 86.9133 78.7599 86.1333 78.7599 85.2V84.44C78.7599 84.3067 78.7133 84.1933 78.6199 84.1C78.5266 84.0067 78.4133 83.96 78.2799 83.96H73.6799C73.5466 83.96 73.4333 84.0067 73.3399 84.1C73.2466 84.1933 73.1999 84.3067 73.1999 84.44V85.48C73.1999 87.0267 73.5799 88.3933 74.3399 89.58C75.0999 90.7667 76.1733 91.6867 77.5599 92.34C78.9466 92.9933 80.5599 93.32 82.3999 93.32ZM108.48 92.24C107.067 92.9867 105.44 93.36 103.6 93.36C101.76 93.36 100.14 92.9867 98.7399 92.24C97.3399 91.4933 96.2533 90.44 95.4799 89.08C94.7066 87.72 94.3199 86.1333 94.3199 84.32V73.68C94.3199 71.8933 94.7066 70.32 95.4799 68.96C96.2533 67.6 97.3399 66.5467 98.7399 65.8C100.14 65.0533 101.76 64.68 103.6 64.68C105.44 64.68 107.067 65.0533 108.48 65.8C109.893 66.5467 110.987 67.6 111.76 68.96C112.533 70.32 112.92 71.8933 112.92 73.68V84.32C112.92 86.1333 112.533 87.72 111.76 89.08C110.987 90.44 109.893 91.4933 108.48 92.24ZM103.6 88.52C102.507 88.52 101.627 88.1533 100.96 87.42C100.293 86.6867 99.9599 85.7333 99.9599 84.56V73.52C99.9599 72.32 100.293 71.3533 100.96 70.62C101.627 69.8867 102.507 69.52 103.6 69.52C104.72 69.52 105.613 69.8867 106.28 70.62C106.947 71.3533 107.28 72.32 107.28 73.52V84.56C107.28 85.7333 106.947 86.6867 106.28 87.42C105.613 88.1533 104.72 88.52 103.6 88.52ZM122.18 92.86C122.087 92.9533 121.973 93 121.84 93H117.16C117.027 93 116.913 92.9533 116.82 92.86C116.727 92.7667 116.68 92.6533 116.68 92.52V65.48C116.68 65.3467 116.727 65.2333 116.82 65.14C116.913 65.0467 117.027 65 117.16 65H126.92C128.493 65 129.893 65.3533 131.12 66.06C132.347 66.7667 133.293 67.76 133.96 69.04C134.627 70.32 134.96 71.7867 134.96 73.44C134.96 75.1467 134.587 76.6267 133.84 77.88C133.093 79.1333 132.04 80.0667 130.68 80.68C130.547 80.7333 130.507 80.8267 130.56 80.96L135.12 92.44C135.147 92.4933 135.16 92.56 135.16 92.64C135.16 92.88 135.013 93 134.72 93H129.84C129.547 93 129.36 92.8667 129.28 92.6L125.24 81.56C125.187 81.4533 125.12 81.4 125.04 81.4H122.52C122.387 81.4 122.32 81.4667 122.32 81.6V92.52C122.32 92.6533 122.273 92.7667 122.18 92.86ZM126 77.08H122.52C122.387 77.08 122.32 77.0133 122.32 76.88V70.04C122.32 69.9067 122.387 69.84 122.52 69.84H126C126.987 69.84 127.787 70.1667 128.4 70.82C129.013 71.4733 129.32 72.36 129.32 73.48C129.32 74.5733 129.013 75.4467 128.4 76.1C127.787 76.7533 126.987 77.08 126 77.08ZM153.34 91.18C151.7 92.6067 149.52 93.32 146.8 93.32C144.96 93.32 143.347 92.9933 141.96 92.34C140.573 91.6867 139.5 90.7667 138.74 89.58C137.98 88.3933 137.6 87.0267 137.6 85.48V84.44C137.6 84.3067 137.647 84.1933 137.74 84.1C137.833 84.0067 137.947 83.96 138.08 83.96H142.68C142.813 83.96 142.927 84.0067 143.02 84.1C143.113 84.1933 143.16 84.3067 143.16 84.44V85.2C143.16 86.1333 143.507 86.9133 144.2 87.54C144.893 88.1667 145.827 88.48 147 88.48C148.04 88.48 148.833 88.2133 149.38 87.68C149.927 87.1467 150.2 86.4667 150.2 85.64C150.2 85.0267 150.027 84.5 149.68 84.06C149.333 83.62 148.847 83.2067 148.22 82.82C147.593 82.4333 146.627 81.9067 145.32 81.24C143.72 80.44 142.413 79.6933 141.4 79C140.387 78.3067 139.52 77.4133 138.8 76.32C138.08 75.2267 137.72 73.9067 137.72 72.36C137.72 70.8133 138.087 69.46 138.82 68.3C139.553 67.14 140.587 66.2467 141.92 65.62C143.253 64.9933 144.773 64.68 146.48 64.68C148.267 64.68 149.853 65.02 151.24 65.7C152.627 66.38 153.707 67.3333 154.48 68.56C155.253 69.7867 155.64 71.2 155.64 72.8V73.6C155.64 73.7333 155.593 73.8467 155.5 73.94C155.407 74.0333 155.293 74.08 155.16 74.08H150.56C150.427 74.08 150.313 74.0333 150.22 73.94C150.127 73.8467 150.08 73.7333 150.08 73.6V72.88C150.08 71.92 149.747 71.12 149.08 70.48C148.413 69.84 147.507 69.52 146.36 69.52C145.4 69.52 144.647 69.7667 144.1 70.26C143.553 70.7533 143.28 71.44 143.28 72.32C143.28 72.9333 143.44 73.4667 143.76 73.92C144.08 74.3733 144.573 74.8067 145.24 75.22C145.907 75.6333 146.92 76.1733 148.28 76.84L149.12 77.32C150.667 78.1733 151.873 78.9133 152.74 79.54C153.607 80.1667 154.333 80.96 154.92 81.92C155.507 82.88 155.8 84.04 155.8 85.4C155.8 87.8267 154.98 89.7533 153.34 91.18Z" fill="white"/>
</svg>
