<svg width="145" height="148" viewBox="0 0 145 148" fill="none" xmlns="http://www.w3.org/2000/svg">
<ellipse cx="72.5" cy="74" rx="72.5" ry="74" fill="#2D8DAB"/>
<ellipse cx="72.5" cy="70.7192" rx="72.5" ry="70.7192" fill="#3FB7CD"/>
<ellipse cx="72.5" cy="70.7192" rx="72.5" ry="70.7192" fill="url(#paint0_linear_0_1103)"/>
<ellipse cx="72.5" cy="72.1774" rx="55.6566" ry="55.4089" fill="#BABFD4"/>
<ellipse cx="72.5" cy="75.0937" rx="55.6566" ry="52.4926" fill="url(#paint1_linear_0_1103)"/>
<path d="M97.0415 76.4218L96.1785 75.5627C94.1164 73.5086 90.7455 73.0613 88.228 74.5018L82.8522 77.5609L83.9726 53.0595C83.9726 51.0054 82.2944 49.3335 80.2298 49.3335C79.784 49.3335 79.3549 49.4119 78.9568 49.5554L79.0903 48.2406C79.0905 46.1629 77.3859 44.4731 75.2928 44.4731C73.3571 44.4731 71.7336 45.9185 71.5285 47.7719L68.079 68.5213C68.0337 68.8037 67.5425 68.7752 67.4901 68.5973L63.4159 51.962C62.9701 50.4147 61.5302 49.3336 59.9139 49.3336C58.7959 49.3336 57.7564 49.8344 57.0604 50.7078C56.3666 51.5812 56.114 52.7048 56.3714 53.7883L57.1629 57.1381C56.7123 57.1013 56.2594 57.1618 55.8279 57.3066C54.2211 57.8394 53.2413 59.4366 53.5012 61.1239L55.8994 74.8508C55.8994 80.2666 56.853 84.2738 57.654 86.6803C58.1093 88.0532 58.3406 89.4973 58.3406 90.9723C58.3406 92.2562 58.1617 93.5343 57.8065 94.7683L55.947 101.25C55.8421 101.616 55.916 102.01 56.1449 102.315C56.3761 102.619 56.7361 102.798 57.1199 102.798H79.0903C79.4837 102.798 79.8508 102.611 80.0797 102.294C80.3109 101.977 80.3729 101.569 80.2489 101.199C80.237 101.167 79.2167 98.0292 80.1822 93.7609C81.4076 92.7711 85.6962 89.2991 87.2363 87.899C89.7824 85.5838 96.7577 78.4308 97.0534 78.1271C97.5183 77.6512 97.5135 76.8917 97.0415 76.4218Z" fill="#3B4262"/>
<defs>
<linearGradient id="paint0_linear_0_1103" x1="0" y1="0" x2="0" y2="141.438" gradientUnits="userSpaceOnUse">
<stop stop-color="white" stop-opacity="0.0966455"/>
<stop offset="1" stop-color="white" stop-opacity="0.01"/>
</linearGradient>
<linearGradient id="paint1_linear_0_1103" x1="127.234" y1="127.586" x2="127.234" y2="24.3412" gradientUnits="userSpaceOnUse">
<stop stop-color="#F3F3F3"/>
<stop offset="1" stop-color="#DADADA"/>
</linearGradient>
</defs>
</svg>
